{"title":"Bangistan (2015) Pre DvD Rip - XviD {VikkyMaxx}","uid":12207497,"size":735964666,"categoryP":"video","categoryS":"movies","magnet":"?xt=urn:btih:5b42afa3a3ca4560046119c1fbed3cf5390e3a4c&amp;dn=Bangistan+%282015%29+Pre+DvD+Rip+-+XviD+%7BVikkyMaxx%7D&amp;tr=udp%3A%2F%2Ftracker.openbittorrent.com%3A80&amp;tr=udp%3A%2F%2Fopen.demonii.com%3A1337&amp;tr=udp%3A%2F%2Ftracker.coppersurfer.tk%3A6969&amp;tr=udp%3A%2F%2Fexodus.desync.com%3A6969","seeders":0,"leechers":2,"uploader":"shailendramaxx","files":20,"time":1439017203,"description":"VikkyMaxx Presents:-\n\nBangistan (2015)PreDvD Rip Xvid\n\nIMDB :- http://www.imdb.com/title/tt3422462\n\nRatings:- 6.0/10 \n\nPlot :- Two blundering terrorists with lofty ideologies, but ordinary talent, on a mission to change the world.\n\nCast :- Jacqueline Fernandez, Pulkit Samrat, Riteish Deshmukh \n\nGeneral:-\n \nComplete name :Bangistan (2015) Pre DvD Rip - XviD {VikkyMaxx}\nFormat : AVI \nFormat/Info : Audio Video Interleave \nFile size : 693 MiB \nDuration : 2h 6mn \nOverall bit rate : 765 Kbps \n\nVideo:-\n \nID : 0 \nFormat : MPEG-4 Visual \nFormat profile : Advanced Simple@L5 \nFormat settings, BVOP : 2 \nFormat settings, QPel : No \nFormat settings, GMC : No warppoints \nFormat settings, Matrix : Default (H.263) \nCodec ID : XVID \nCodec ID/Hint : XviD \nDuration : 2h 6mn \nBit rate : 631 Kbps \nWidth : 640 pixels \nHeight : 272 pixels \nDisplay aspect ratio : 2.35:1 \nFrame rate : 25.000 fps \nColor space : YUV \nChroma subsampling : 4:2:0 \nBit depth : 8 bits \nScan type : Progressive \nCompression mode : Lossy \nBits/(Pixel*Frame) : 0.145 \nStream size : 572 MiB (82%) \nWriting library : XviD 1.2.1 (UTC 2008-12-04) \n\nAudio:-\n \nID : 1 \nFormat : MPEG Audio \nFormat version : Version 1 \nFormat profile : Layer 3 \nMode : Joint stereo \nCodec ID : 55 \nCodec ID/Hint : MP3 \nDuration : 2h 6mn \nBit rate mode : Constant \nBit rate : 128 Kbps \nChannel(s) : 2 channels \nSampling rate : 48.0 KHz \nCompression mode : Lossy \nStream size : 116 MiB (17%) \nAlignment : Aligned on interleaves \nInterleave, duration : 160 ms (4.00 video frames) \nInterleave, preload duration : 216 ms \nWriting library : LAME3.99r \nEncoding settings : -m j -V 4 -q 2 -lowpass 17 -b 128 \nLanguage :- Hindi\n\n\nSCREENS :-\n &lt;a href=&quot;\nhttp://i.imgur.com/cesAuai.png&quot; rel=&quot;nofollow&quot; target=&quot;_NEW&quot;&gt;\nhttp://i.imgur.com/cesAuai.png&lt;/a&gt;\n &lt;a href=&quot;\nhttp://i.imgur.com/AsXqKE8.png&quot; rel=&quot;nofollow&quot; target=&quot;_NEW&quot;&gt;\nhttp://i.imgur.com/AsXqKE8.png&lt;/a&gt;\n &lt;a href=&quot;\nhttp://i.imgur.com/F5A40Hz.png&quot; rel=&quot;nofollow&quot; target=&quot;_NEW&quot;&gt;\nhttp://i.imgur.com/F5A40Hz.png&lt;/a&gt;\n &lt;a href=&quot;\nhttp://i.imgur.com/NBM1cD8.png&quot; rel=&quot;nofollow&quot; target=&quot;_NEW&quot;&gt;\nhttp://i.imgur.com/NBM1cD8.png&lt;/a&gt;\n &lt;a href=&quot;\nhttp://i.imgur.com/ex3VL1Z.png&quot; rel=&quot;nofollow&quot; target=&quot;_NEW&quot;&gt;\nhttp://i.imgur.com/ex3VL1Z.png&lt;/a&gt;\n &lt;a href=&quot;\nhttp://i.imgur.com/M4MgfhB.png&quot; rel=&quot;nofollow&quot; target=&quot;_NEW&quot;&gt;\nhttp://i.imgur.com/M4MgfhB.png&lt;/a&gt;\n &lt;a href=&quot;\nhttp://i.imgur.com/qj2Equb.png&quot; rel=&quot;nofollow&quot; target=&quot;_NEW&quot;&gt;\nhttp://i.imgur.com/qj2Equb.png&lt;/a&gt;\n &lt;a href=&quot;\nhttp://i.imgur.com/YgFqAXl.png&quot; rel=&quot;nofollow&quot; target=&quot;_NEW&quot;&gt;\nhttp://i.imgur.com/YgFqAXl.png&lt;/a&gt;\n &lt;a href=&quot;\nhttp://i.imgur.com/rmXjtZ8.png&quot; rel=&quot;nofollow&quot; target=&quot;_NEW&quot;&gt;\nhttp://i.imgur.com/rmXjtZ8.png&lt;/a&gt;\n &lt;a href=&quot;\nhttp://i.imgur.com/ny9WgNT.png&quot; rel=&quot;nofollow&quot; target=&quot;_NEW&quot;&gt;\nhttp://i.imgur.com/ny9WgNT.png&lt;/a&gt;\n\n\n\n\n                              \n            ********** PLEASE SEED AS LONG AS YOU CAN AFTER DOWNLOAD **********\n                       \n                          ***** THANK YOU REGARDS - VikkyMaxx *****","torrent":{"xt":"urn:btih:5b42afa3a3ca4560046119c1fbed3cf5390e3a4c","amp;dn":"Bangistan+%282015%29+Pre+DvD+Rip+-+XviD+%7BVikkyMaxx%7D","amp;tr":["udp%3A%2F%2Ftracker.openbittorrent.com%3A80","udp%3A%2F%2Fopen.demonii.com%3A1337","udp%3A%2F%2Ftracker.coppersurfer.tk%3A6969","udp%3A%2F%2Fexodus.desync.com%3A6969"],"infoHash":"5b42afa3a3ca4560046119c1fbed3cf5390e3a4c","infoHashBuffer":{"type":"Buffer","data":[91,66,175,163,163,202,69,96,4,97,25,193,251,237,60,245,57,14,58,76]},"announce":[],"urlList":[]}}